<?xml version="1.0" encoding="utf-8"?>
<!-- Generator: Adobe Illustrator 27.8.0, SVG Export Plug-In . SVG Version: 6.00 Build 0)  -->
<svg version="1.1" id="Camada_1" xmlns="http://www.w3.org/2000/svg" xmlns:xlink="http://www.w3.org/1999/xlink" x="0px" y="0px"
	 viewBox="0 0 600 186" style="enable-background:new 0 0 600 186;" xml:space="preserve">
<style type="text/css">
	.st0{fill:#FFFFFF;}
	.st1{fill:#E02C32;}
	.st2{fill:none;stroke:#FFFFFF;stroke-width:5;stroke-linecap:round;stroke-linejoin:round;}
</style>
<path class="st0" d="M584.9,186H15.1C6.8,186,0,179.2,0,170.9V15.1C0,6.8,6.8,0,15.1,0h569.7c8.4,0,15.1,6.8,15.1,15.1v155.7
	C600,179.2,593.2,186,584.9,186z"/>
<g>
	<path class="st1" d="M79,111.9v41.5h-8.6v-41.5H79z M85.2,153.5H74.4v-7.3h10.2c2.7,0,5.1-0.5,7-1.5c1.8-1.1,3.1-2.6,4-4.6
		s1.3-4.6,1.3-7.5c0-2.9-0.4-5.5-1.3-7.5c-0.9-1.8-2.2-3.5-4-4.4c-1.8-1.1-4-1.5-6.8-1.5H74.3v-7.3h11.2c4.2,0,7.7,0.9,10.8,2.6
		c2.9,1.6,5.3,4,7,7.1c1.6,3.1,2.6,6.8,2.6,11c0,4.2-0.7,8.1-2.4,11.2c-1.6,3.1-4,5.5-7.1,7.1C93.1,152.5,89.4,153.5,85.2,153.5z"/>
	<path class="st1" d="M114.7,119.8c-1.3,0-2.4-0.4-3.3-1.3s-1.3-1.8-1.3-3.1c0-1.3,0.4-2.2,1.3-3.1c0.9-0.9,2-1.3,3.3-1.3
		c1.3,0,2.4,0.4,3.3,1.3c0.9,0.9,1.3,1.8,1.3,3.1c0,1.3-0.4,2.2-1.3,3.1S116,119.8,114.7,119.8z M110.7,153.5v-29.8h8.2v29.8H110.7z
		"/>
	<path class="st1" d="M137.2,154c-2.6,0-4.8-0.4-6.8-1.1s-3.5-1.8-4.8-3.3c-1.3-1.5-1.8-3.3-2-5.3l8.1-0.4c0.2,1.3,0.7,2.4,1.6,3.1
		c0.9,0.7,2.2,1.1,3.8,1.1c1.5,0,2.7-0.4,3.7-0.9c0.9-0.5,1.3-1.3,1.3-2.2c0-0.7-0.4-1.5-0.9-1.8c-0.7-0.5-1.6-0.9-2.9-1.1l-5.1-1.1
		c-2.9-0.5-5.1-1.6-6.6-3.1c-1.5-1.5-2.2-3.3-2.2-5.5c0-1.8,0.5-3.5,1.5-4.9s2.4-2.6,4.2-3.3c1.8-0.7,4-1.1,6.6-1.1
		c2.6,0,4.8,0.4,6.6,1.1c1.8,0.7,3.3,1.8,4.4,3.3c1.1,1.5,1.6,3.1,1.8,5.1L142,133c-0.2-1.1-0.5-2-1.5-2.9c-0.9-0.7-2-1.1-3.5-1.1
		s-2.6,0.4-3.3,0.9c-0.9,0.5-1.3,1.3-1.3,2.2c0,0.7,0.4,1.5,0.9,1.8c0.5,0.5,1.5,0.9,2.7,1.1l5.7,1.1c2.9,0.5,5.1,1.6,6.6,2.9
		c1.5,1.3,2.2,3.1,2.2,5.3c0,2-0.5,3.7-1.6,5.1c-1.1,1.5-2.7,2.6-4.8,3.5C142,153.6,139.8,154,137.2,154z"/>
	<path class="st1" d="M155.1,165v-41.4h8.1v4.2h0.2c0.5-0.9,1.3-1.8,2-2.6c0.9-0.7,1.8-1.3,2.9-1.6c1.1-0.4,2.4-0.5,3.7-0.5
		c2.4,0,4.6,0.5,6.6,1.8c1.8,1.3,3.5,3.1,4.6,5.3c1.1,2.4,1.6,5.1,1.6,8.2c0,3.1-0.5,5.9-1.6,8.2c-1.1,2.4-2.6,4-4.4,5.3
		c-1.8,1.3-4.2,1.8-6.6,1.8c-1.5,0-2.6-0.2-3.7-0.5c-1.1-0.4-2-1.1-2.9-1.8c-0.7-0.7-1.5-1.6-2-2.7h-0.2v16.1h-8.2V165z
		 M169.8,147.2c1.5,0,2.6-0.4,3.5-1.1c0.9-0.7,1.6-1.6,2.2-3.1c0.5-1.3,0.7-2.9,0.7-4.8c0-1.8-0.2-3.3-0.7-4.8
		c-0.5-1.3-1.3-2.4-2.2-3.1c-0.9-0.7-2.2-1.1-3.5-1.1c-1.5,0-2.6,0.4-3.7,1.1c-1.1,0.7-1.8,1.8-2.4,3.1c-0.5,1.3-0.9,2.9-0.9,4.6
		c0,1.8,0.4,3.3,0.9,4.6c0.5,1.3,1.3,2.4,2.4,3.1C167.2,146.9,168.5,147.2,169.8,147.2z"/>
	<path class="st1" d="M197.8,111.9v41.5h-8.2v-41.5H197.8z"/>
	<path class="st1" d="M212.8,153.8c-2,0-3.7-0.4-5.3-0.9c-1.5-0.7-2.7-1.6-3.7-2.9c-0.9-1.3-1.3-2.9-1.3-4.9c0-1.6,0.4-3.1,0.9-4.2
		c0.5-1.1,1.5-2,2.6-2.7s2.4-1.3,3.7-1.6c1.5-0.4,2.9-0.5,4.4-0.7c1.8-0.2,3.3-0.4,4.4-0.5c1.1-0.2,1.8-0.4,2.4-0.7
		c0.5-0.4,0.7-0.7,0.7-1.5v-0.2c0-0.7-0.2-1.5-0.5-2c-0.4-0.5-0.9-0.9-1.6-1.3c-0.7-0.4-1.6-0.5-2.6-0.5c-1.1,0-2,0.2-2.7,0.5
		c-0.7,0.4-1.5,0.7-1.8,1.3c-0.4,0.5-0.7,1.3-0.9,2l-7.7-0.4c0.2-2,0.9-3.7,2-5.1c1.1-1.5,2.6-2.6,4.6-3.3c1.8-0.7,4.2-1.1,6.8-1.1
		c2,0,3.7,0.2,5.3,0.7c1.6,0.4,2.9,1.1,4,2s2,2,2.6,3.1c0.5,1.1,0.9,2.7,0.9,4.4v20.1h-8.1v-4.2h-0.2c-0.5,0.9-1.1,1.8-2,2.6
		c-0.7,0.7-1.6,1.3-2.7,1.6C215.7,153.6,214.4,153.8,212.8,153.8z M215.2,148.2c1.3,0,2.4-0.2,3.5-0.7c0.9-0.5,1.6-1.1,2.2-2
		c0.5-0.9,0.7-1.8,0.7-2.9v-3.1c-0.2,0.2-0.5,0.2-0.9,0.4s-0.9,0.2-1.5,0.4s-1.1,0.2-1.6,0.4c-0.5,0.2-1.3,0.2-1.8,0.4
		c-0.9,0.2-1.8,0.4-2.6,0.7c-0.7,0.4-1.5,0.7-1.8,1.3c-0.4,0.5-0.7,1.3-0.7,2s0.2,1.3,0.5,1.8c0.4,0.5,0.9,0.9,1.6,1.1
		C213.5,148,214.3,148.2,215.2,148.2z"/>
	<path class="st1" d="M235.1,164.8l0.4-6.4h3.1c0.7,0,1.5,0,1.8-0.2c0.5-0.2,0.9-0.5,1.3-0.9c0.4-0.5,0.5-1.1,0.9-2l0.7-2L232,123.5
		h8.6l4.9,14.8c0.5,1.8,1.1,3.7,1.6,5.3c0.5,1.8,0.9,3.7,1.5,5.5h-2.2c0.5-1.8,0.9-3.7,1.5-5.5c0.5-1.8,1.1-3.7,1.6-5.3l5.1-14.8
		h8.6l-13,34.2c-0.5,1.6-1.3,2.9-2.2,4s-2,1.8-3.1,2.4c-1.1,0.5-2.7,0.7-4.4,0.7c-0.9,0-1.8,0-2.7,0C236.8,165,236,165,235.1,164.8z
		"/>
	<path class="st1" d="M288,111.9v41.5h-8.6v-41.5H288z"/>
	<path class="st1" d="M302.7,136.6v16.7h-8.2v-29.6h8.1v7.7h-1.3c0.9-2.6,2.2-4.6,3.8-6c1.6-1.5,3.8-2.2,6.6-2.2
		c2.2,0,4,0.4,5.5,1.3c1.6,0.9,2.7,2.2,3.7,4c0.9,1.6,1.3,3.8,1.3,6.2v18.7h-8.2v-17.2c0-2-0.5-3.5-1.5-4.6c-0.9-1.1-2.4-1.6-4-1.6
		c-1.1,0-2.2,0.2-3.1,0.7c-0.9,0.5-1.6,1.3-2,2.2C302.8,133.9,302.7,135.2,302.7,136.6z"/>
	<path class="st1" d="M344.9,123.6v6.4h-19.2v-6.4H344.9z M330.7,115.8h8.2v28.5c0,0.9,0.2,1.6,0.5,2c0.4,0.4,1.1,0.5,2.2,0.5
		c0.4,0,0.9,0,1.6,0c0.5,0,1.1,0,1.5,0l0.2,6.4c-0.5,0-1.3,0.2-2.2,0.2c-0.9,0-1.8,0-2.7,0c-3.3,0-5.7-0.7-7.1-2
		c-1.6-1.3-2.4-3.3-2.4-6v-29.6H330.7z"/>
	<path class="st1" d="M362.3,154c-3.1,0-5.7-0.7-7.9-2c-2.2-1.3-4-3.1-5.1-5.5c-1.3-2.4-1.8-4.9-1.8-8.1c0-3.1,0.5-5.7,1.8-8.1
		c1.3-2.4,2.9-4.2,5.1-5.5c2.2-1.3,4.8-2,7.5-2c2.2,0,4,0.4,5.9,1.1c1.8,0.7,3.3,1.8,4.6,3.1c1.3,1.3,2.4,2.9,2.9,4.8
		c0.7,1.8,1.1,4,1.1,6.4v2.2h-26v-5.3h22l-3.7,1.3c0-1.5-0.2-2.7-0.7-3.8c-0.5-1.1-1.3-2-2.2-2.6c-0.9-0.5-2.2-0.9-3.5-0.9
		c-1.5,0-2.6,0.4-3.5,0.9c-0.9,0.5-1.8,1.5-2.4,2.6s-0.7,2.4-0.7,3.8v3.7c0,1.6,0.4,2.9,0.9,4s1.3,2,2.4,2.7
		c1.1,0.5,2.4,0.9,3.8,0.9c1.1,0,2-0.2,2.7-0.4c0.9-0.4,1.5-0.7,2-1.3c0.5-0.5,0.9-1.3,1.3-2l7.5,0.4c-0.4,1.8-1.3,3.5-2.6,4.9
		c-1.3,1.5-2.9,2.6-4.8,3.3C366.9,153.6,364.7,154,362.3,154z"/>
	<path class="st1" d="M381.3,153.5v-29.8h7.9v5.1h0.2c0.5-1.8,1.5-3.1,2.6-4c1.3-0.9,2.7-1.3,4.6-1.3c0.5,0,0.9,0,1.3,0
		s0.7,0,1.1,0.2v7.1c-0.4,0-0.7,0-1.5-0.2c-0.7,0-1.3,0-2,0c-1.1,0-2.2,0.2-3.1,0.7c-0.9,0.5-1.6,1.3-2.2,2.2s-0.7,2.2-0.7,3.7v16.3
		H381.3z"/>
	<path class="st1" d="M411.4,153.8c-2,0-3.7-0.4-5.3-0.9c-1.5-0.7-2.7-1.6-3.7-2.9c-0.9-1.3-1.3-2.9-1.3-4.9c0-1.6,0.4-3.1,0.9-4.2
		s1.5-2,2.6-2.7c1.1-0.7,2.4-1.3,3.7-1.6c1.5-0.4,2.9-0.5,4.4-0.7c1.8-0.2,3.3-0.4,4.4-0.5c1.1-0.2,1.8-0.4,2.4-0.7
		c0.5-0.4,0.7-0.7,0.7-1.5v-0.2c0-0.7-0.2-1.5-0.5-2c-0.4-0.5-0.9-0.9-1.6-1.3c-0.7-0.4-1.6-0.5-2.6-0.5c-0.9,0-1.8,0.2-2.7,0.5
		c-0.7,0.4-1.5,0.7-1.8,1.3c-0.4,0.5-0.7,1.3-0.9,2l-7.7-0.4c0.2-2,0.9-3.7,2-5.1c1.1-1.5,2.6-2.6,4.6-3.3c1.8-0.7,4.2-1.1,6.8-1.1
		c2,0,3.7,0.2,5.3,0.7c1.6,0.4,2.9,1.1,4,2c1.1,0.9,2,2,2.6,3.1c0.5,1.3,0.9,2.7,0.9,4.4v20.1h-8.1v-4.2h-0.2
		c-0.5,0.9-1.1,1.8-2,2.6c-0.7,0.7-1.6,1.3-2.7,1.6C414.3,153.6,413,153.8,411.4,153.8z M413.7,148.2c1.3,0,2.4-0.2,3.5-0.7
		c0.9-0.5,1.6-1.1,2.2-2s0.7-1.8,0.7-2.9v-3.1c-0.2,0.2-0.5,0.2-0.9,0.4s-0.9,0.2-1.5,0.4c-0.5,0.2-1.1,0.2-1.6,0.4
		c-0.5,0.2-1.3,0.2-1.8,0.4c-0.9,0.2-1.8,0.4-2.6,0.7c-0.7,0.4-1.5,0.7-1.8,1.3c-0.4,0.5-0.7,1.3-0.7,2s0.2,1.3,0.5,1.8
		c0.4,0.5,0.9,0.9,1.6,1.1C411.9,148,412.8,148.2,413.7,148.2z"/>
	<path class="st1" d="M450.9,123.6v6.4h-19.2v-6.4H450.9z M436.8,115.8h8.2v28.5c0,0.9,0.2,1.6,0.5,2c0.4,0.4,1.1,0.5,2.2,0.5
		c0.4,0,0.9,0,1.6,0c0.5,0,1.1,0,1.5,0l0.2,6.4c-0.5,0-1.3,0.2-2.2,0.2c-0.9,0-1.8,0-2.7,0c-3.3,0-5.7-0.7-7.1-2
		c-1.6-1.3-2.4-3.3-2.4-6v-29.6H436.8z"/>
	<path class="st1" d="M459.5,119.8c-1.3,0-2.4-0.4-3.3-1.3c-0.9-0.9-1.3-1.8-1.3-3.1c0-1.3,0.4-2.2,1.3-3.1c0.9-0.9,2-1.3,3.3-1.3
		c1.3,0,2.4,0.4,3.3,1.3c0.9,0.9,1.3,1.8,1.3,3.1c0,1.3-0.4,2.2-1.3,3.1C461.9,119.4,460.8,119.8,459.5,119.8z M455.5,153.5v-29.8
		h8.2v29.8H455.5z"/>
	<path class="st1" d="M478.2,153.5l-11-29.8h8.6l4.9,14.8c0.5,1.8,1.1,3.7,1.6,5.5s0.9,3.7,1.5,5.5H482c0.5-1.8,0.9-3.7,1.5-5.5
		s1.1-3.7,1.6-5.5l4.8-14.8h8.6l-11,29.8H478.2z"/>
	<path class="st1" d="M514.6,154c-2.9,0-5.7-0.7-7.9-2c-2.2-1.3-4-3.1-5.3-5.5c-1.3-2.4-1.8-4.9-1.8-8.1c0-3.1,0.5-5.9,1.8-8.2
		c1.3-2.4,2.9-4.2,5.3-5.5c2.2-1.3,4.9-2,7.9-2s5.7,0.7,7.9,2c2.2,1.3,4,3.1,5.3,5.5c1.3,2.4,1.8,5.1,1.8,8.2c0,3.1-0.5,5.9-1.8,8.1
		c-1.3,2.4-2.9,4.2-5.3,5.5C520.3,153.5,517.5,154,514.6,154z M514.6,147.4c1.5,0,2.6-0.4,3.5-1.1c0.9-0.7,1.8-1.8,2.4-3.1
		c0.5-1.3,0.7-2.9,0.7-4.8s-0.4-3.5-0.7-4.8c-0.5-1.3-1.3-2.4-2.4-3.1c-0.9-0.7-2.2-1.1-3.5-1.1c-1.3,0-2.6,0.4-3.5,1.1
		c-0.9,0.7-1.8,1.8-2.4,3.1s-0.7,2.9-0.7,4.8s0.2,3.3,0.7,4.8c0.5,1.5,1.3,2.4,2.4,3.1C512,147.1,513.3,147.4,514.6,147.4z"/>
</g>
<g>
	<circle class="st1" cx="300" cy="56" r="42"/>
	<g>
		<path class="st2" d="M285.2,46.8h29.6c2,0,3.7,1.6,3.7,3.7v20.3c0,2-1.6,3.7-3.7,3.7h-29.6c-2,0-3.7-1.6-3.7-3.7V50.5
			C281.5,48.5,283.2,46.8,285.2,46.8z"/>
		<polyline class="st2" points="309.2,37.5 300,46.8 290.7,37.5 		"/>
	</g>
</g>
</svg>
