<?xml version="1.0" encoding="utf-8"?>
<!-- Generator: Adobe Illustrator 27.8.0, SVG Export Plug-In . SVG Version: 6.00 Build 0)  -->
<svg version="1.1" id="Layer_1" xmlns="http://www.w3.org/2000/svg" xmlns:xlink="http://www.w3.org/1999/xlink" x="0px" y="0px"
	 viewBox="0 0 299 34" style="enable-background:new 0 0 299 34;" xml:space="preserve">
<style type="text/css">
	.st0{fill:#FFFFFF;}
	.st1{fill:none;stroke:#FFFFFF;stroke-width:3;stroke-linecap:round;stroke-linejoin:round;}
</style>
<g>
	<g>
		<path class="st0" d="M48.1,2.7v22.7h-4.7V2.7H48.1z M51.5,25.4h-5.9v-4h5.6c1.5,0,2.8-0.3,3.8-0.8c1-0.6,1.7-1.4,2.2-2.5
			c0.5-1.1,0.7-2.5,0.7-4.1c0-1.6-0.2-3-0.7-4.1C56.7,8.9,56,8,55,7.5c-1-0.6-2.2-0.8-3.7-0.8h-5.8v-4h6.1c2.3,0,4.2,0.5,5.9,1.4
			C59.1,5,60.4,6.3,61.3,8c0.9,1.7,1.4,3.7,1.4,6c0,2.3-0.4,4.4-1.3,6.1c-0.9,1.7-2.2,3-3.9,3.9C55.8,24.9,53.8,25.4,51.5,25.4z"/>
		<path class="st0" d="M67.6,7c-0.7,0-1.3-0.2-1.8-0.7c-0.5-0.5-0.7-1-0.7-1.7c0-0.7,0.2-1.2,0.7-1.7s1.1-0.7,1.8-0.7
			c0.7,0,1.3,0.2,1.8,0.7c0.5,0.5,0.7,1,0.7,1.7c0,0.7-0.2,1.2-0.7,1.7C68.9,6.8,68.3,7,67.6,7z M65.4,25.4V9.1h4.5v16.3H65.4z"/>
		<path class="st0" d="M79.9,25.7c-1.4,0-2.6-0.2-3.7-0.6c-1.1-0.4-1.9-1-2.6-1.8c-0.7-0.8-1-1.8-1.1-2.9l4.4-0.2
			c0.1,0.7,0.4,1.3,0.9,1.7c0.5,0.4,1.2,0.6,2.1,0.6c0.8,0,1.5-0.2,2-0.5s0.7-0.7,0.7-1.2c0-0.4-0.2-0.8-0.5-1
			c-0.4-0.3-0.9-0.5-1.6-0.6l-2.8-0.6c-1.6-0.3-2.8-0.9-3.6-1.7c-0.8-0.8-1.2-1.8-1.2-3c0-1,0.3-1.9,0.8-2.7S75,9.8,76,9.4
			c1-0.4,2.2-0.6,3.6-0.6c1.4,0,2.6,0.2,3.6,0.6c1,0.4,1.8,1,2.4,1.8c0.6,0.8,0.9,1.7,1,2.8l-4.1,0.2c-0.1-0.6-0.3-1.1-0.8-1.6
			c-0.5-0.4-1.1-0.6-1.9-0.6c-0.8,0-1.4,0.2-1.8,0.5c-0.5,0.3-0.7,0.7-0.7,1.2c0,0.4,0.2,0.8,0.5,1c0.3,0.3,0.8,0.5,1.5,0.6l3.1,0.6
			c1.6,0.3,2.8,0.9,3.6,1.6c0.8,0.7,1.2,1.7,1.2,2.9c0,1.1-0.3,2-0.9,2.8s-1.5,1.4-2.6,1.9C82.5,25.5,81.3,25.7,79.9,25.7z"/>
		<path class="st0" d="M89.7,31.7V9.1h4.4v2.3h0.1c0.3-0.5,0.7-1,1.1-1.4c0.5-0.4,1-0.7,1.6-0.9c0.6-0.2,1.3-0.3,2-0.3
			c1.3,0,2.5,0.3,3.6,1c1,0.7,1.9,1.7,2.5,2.9c0.6,1.3,0.9,2.8,0.9,4.5c0,1.7-0.3,3.2-0.9,4.5c-0.6,1.3-1.4,2.2-2.4,2.9
			c-1,0.7-2.3,1-3.6,1c-0.8,0-1.4-0.1-2-0.3c-0.6-0.2-1.1-0.6-1.6-1c-0.4-0.4-0.8-0.9-1.1-1.5h-0.1v8.8H89.7z M97.7,22
			c0.8,0,1.4-0.2,1.9-0.6c0.5-0.4,0.9-0.9,1.2-1.7c0.3-0.7,0.4-1.6,0.4-2.6c0-1-0.1-1.8-0.4-2.6c-0.3-0.7-0.7-1.3-1.2-1.7
			c-0.5-0.4-1.2-0.6-1.9-0.6c-0.8,0-1.4,0.2-2,0.6c-0.6,0.4-1,1-1.3,1.7c-0.3,0.7-0.5,1.6-0.5,2.5c0,1,0.2,1.8,0.5,2.5
			c0.3,0.7,0.7,1.3,1.3,1.7C96.3,21.8,97,22,97.7,22z"/>
		<path class="st0" d="M113,2.7v22.7h-4.5V2.7H113z"/>
		<path class="st0" d="M121.2,25.6c-1.1,0-2-0.2-2.9-0.5c-0.8-0.4-1.5-0.9-2-1.6c-0.5-0.7-0.7-1.6-0.7-2.7c0-0.9,0.2-1.7,0.5-2.3
			c0.3-0.6,0.8-1.1,1.4-1.5c0.6-0.4,1.3-0.7,2-0.9c0.8-0.2,1.6-0.3,2.4-0.4c1-0.1,1.8-0.2,2.4-0.3c0.6-0.1,1-0.2,1.3-0.4
			c0.3-0.2,0.4-0.4,0.4-0.8v-0.1c0-0.4-0.1-0.8-0.3-1.1c-0.2-0.3-0.5-0.5-0.9-0.7c-0.4-0.2-0.9-0.3-1.4-0.3c-0.6,0-1.1,0.1-1.5,0.3
			c-0.4,0.2-0.8,0.4-1,0.7c-0.2,0.3-0.4,0.7-0.5,1.1l-4.2-0.2c0.1-1.1,0.5-2,1.1-2.8c0.6-0.8,1.4-1.4,2.5-1.8c1-0.4,2.3-0.6,3.7-0.6
			c1.1,0,2,0.1,2.9,0.4c0.9,0.2,1.6,0.6,2.2,1.1c0.6,0.5,1.1,1.1,1.4,1.7s0.5,1.5,0.5,2.4v11h-4.4v-2.3H126c-0.3,0.5-0.6,1-1.1,1.4
			c-0.4,0.4-0.9,0.7-1.5,0.9C122.8,25.5,122.1,25.6,121.2,25.6z M122.5,22.5c0.7,0,1.3-0.1,1.9-0.4c0.5-0.3,0.9-0.6,1.2-1.1
			c0.3-0.5,0.4-1,0.4-1.6v-1.7c-0.1,0.1-0.3,0.1-0.5,0.2c-0.2,0.1-0.5,0.1-0.8,0.2c-0.3,0.1-0.6,0.1-0.9,0.2c-0.3,0.1-0.7,0.1-1,0.2
			c-0.5,0.1-1,0.2-1.4,0.4c-0.4,0.2-0.8,0.4-1,0.7c-0.2,0.3-0.4,0.7-0.4,1.1c0,0.4,0.1,0.7,0.3,1c0.2,0.3,0.5,0.5,0.9,0.6
			C121.6,22.4,122,22.5,122.5,22.5z"/>
		<path class="st0" d="M133.4,31.6l0.2-3.5l1.7,0c0.4,0,0.8,0,1-0.1c0.3-0.1,0.5-0.3,0.7-0.5c0.2-0.3,0.3-0.6,0.5-1.1l0.4-1.1
			l-6.2-16.3h4.7l2.7,8.1c0.3,1,0.6,2,0.9,2.9c0.3,1,0.5,2,0.8,3h-1.2c0.3-1,0.5-2,0.8-3c0.3-1,0.6-2,0.9-2.9l2.8-8.1h4.7l-7.1,18.7
			c-0.3,0.9-0.7,1.6-1.2,2.2c-0.5,0.6-1.1,1-1.7,1.3s-1.5,0.4-2.4,0.4c-0.5,0-1,0-1.5,0C134.3,31.7,133.9,31.7,133.4,31.6z"/>
		<path class="st0" d="M162.3,2.7v22.7h-4.7V2.7H162.3z"/>
		<path class="st0" d="M170.3,16.2v9.1h-4.5V9.1h4.4l0,4.2h-0.7c0.5-1.4,1.2-2.5,2.1-3.3c0.9-0.8,2.1-1.2,3.6-1.2
			c1.2,0,2.2,0.2,3,0.7c0.9,0.5,1.5,1.2,2,2.2c0.5,0.9,0.7,2.1,0.7,3.4v10.2h-4.5v-9.4c0-1.1-0.3-1.9-0.8-2.5
			c-0.5-0.6-1.3-0.9-2.2-0.9c-0.6,0-1.2,0.1-1.7,0.4c-0.5,0.3-0.9,0.7-1.1,1.2C170.4,14.7,170.3,15.4,170.3,16.2z"/>
		<path class="st0" d="M193.4,9.1v3.5h-10.5V9.1H193.4z M185.6,4.8h4.5v15.6c0,0.5,0.1,0.9,0.3,1.1c0.2,0.2,0.6,0.3,1.2,0.3
			c0.2,0,0.5,0,0.9,0c0.3,0,0.6,0,0.8,0l0.1,3.5c-0.3,0-0.7,0.1-1.2,0.1c-0.5,0-1,0-1.5,0c-1.8,0-3.1-0.4-3.9-1.1
			c-0.9-0.7-1.3-1.8-1.3-3.3V4.8z"/>
		<path class="st0" d="M202.9,25.7c-1.7,0-3.1-0.4-4.3-1.1c-1.2-0.7-2.2-1.7-2.8-3c-0.7-1.3-1-2.7-1-4.4c0-1.7,0.3-3.1,1-4.4
			c0.7-1.3,1.6-2.3,2.8-3c1.2-0.7,2.6-1.1,4.1-1.1c1.2,0,2.2,0.2,3.2,0.6c1,0.4,1.8,1,2.5,1.7c0.7,0.7,1.3,1.6,1.6,2.6
			c0.4,1,0.6,2.2,0.6,3.5v1.2h-14.2v-2.9h12l-2,0.7c0-0.8-0.1-1.5-0.4-2.1c-0.3-0.6-0.7-1.1-1.2-1.4c-0.5-0.3-1.2-0.5-1.9-0.5
			c-0.8,0-1.4,0.2-1.9,0.5c-0.5,0.3-1,0.8-1.3,1.4c-0.3,0.6-0.4,1.3-0.4,2.1v2c0,0.9,0.2,1.6,0.5,2.2c0.3,0.6,0.7,1.1,1.3,1.5
			c0.6,0.3,1.3,0.5,2.1,0.5c0.6,0,1.1-0.1,1.5-0.2c0.5-0.2,0.8-0.4,1.1-0.7c0.3-0.3,0.5-0.7,0.7-1.1l4.1,0.2c-0.2,1-0.7,1.9-1.4,2.7
			c-0.7,0.8-1.6,1.4-2.6,1.8C205.4,25.5,204.2,25.7,202.9,25.7z"/>
		<path class="st0" d="M213.3,25.4V9.1h4.3v2.8h0.1c0.3-1,0.8-1.7,1.4-2.2c0.7-0.5,1.5-0.7,2.5-0.7c0.3,0,0.5,0,0.7,0
			c0.2,0,0.4,0,0.6,0.1v3.9c-0.2,0-0.4,0-0.8-0.1c-0.4,0-0.7,0-1.1,0c-0.6,0-1.2,0.1-1.7,0.4s-0.9,0.7-1.2,1.2
			c-0.3,0.5-0.4,1.2-0.4,2v8.9H213.3z"/>
		<path class="st0" d="M229.7,25.6c-1.1,0-2-0.2-2.9-0.5c-0.8-0.4-1.5-0.9-2-1.6c-0.5-0.7-0.7-1.6-0.7-2.7c0-0.9,0.2-1.7,0.5-2.3
			c0.3-0.6,0.8-1.1,1.4-1.5c0.6-0.4,1.3-0.7,2-0.9c0.8-0.2,1.6-0.3,2.4-0.4c1-0.1,1.8-0.2,2.4-0.3c0.6-0.1,1-0.2,1.3-0.4
			c0.3-0.2,0.4-0.4,0.4-0.8v-0.1c0-0.4-0.1-0.8-0.3-1.1c-0.2-0.3-0.5-0.5-0.9-0.7c-0.4-0.2-0.9-0.3-1.4-0.3s-1,0.1-1.5,0.3
			c-0.4,0.2-0.8,0.4-1,0.7c-0.2,0.3-0.4,0.7-0.5,1.1l-4.2-0.2c0.1-1.1,0.5-2,1.1-2.8c0.6-0.8,1.4-1.4,2.5-1.8c1-0.4,2.3-0.6,3.7-0.6
			c1.1,0,2,0.1,2.9,0.4c0.9,0.2,1.6,0.6,2.2,1.1c0.6,0.5,1.1,1.1,1.4,1.7c0.3,0.7,0.5,1.5,0.5,2.4v11h-4.4v-2.3h-0.1
			c-0.3,0.5-0.6,1-1.1,1.4c-0.4,0.4-0.9,0.7-1.5,0.9C231.3,25.5,230.6,25.6,229.7,25.6z M231,22.5c0.7,0,1.3-0.1,1.9-0.4
			c0.5-0.3,0.9-0.6,1.2-1.1c0.3-0.5,0.4-1,0.4-1.6v-1.7c-0.1,0.1-0.3,0.1-0.5,0.2s-0.5,0.1-0.8,0.2c-0.3,0.1-0.6,0.1-0.9,0.2
			c-0.3,0.1-0.7,0.1-1,0.2c-0.5,0.1-1,0.2-1.4,0.4c-0.4,0.2-0.8,0.4-1,0.7c-0.2,0.3-0.4,0.7-0.4,1.1c0,0.4,0.1,0.7,0.3,1
			c0.2,0.3,0.5,0.5,0.9,0.6C230,22.4,230.5,22.5,231,22.5z"/>
		<path class="st0" d="M251.3,9.1v3.5h-10.5V9.1H251.3z M243.6,4.8h4.5v15.6c0,0.5,0.1,0.9,0.3,1.1c0.2,0.2,0.6,0.3,1.2,0.3
			c0.2,0,0.5,0,0.9,0c0.3,0,0.6,0,0.8,0l0.1,3.5c-0.3,0-0.7,0.1-1.2,0.1c-0.5,0-1,0-1.5,0c-1.8,0-3.1-0.4-3.9-1.1
			c-0.9-0.7-1.3-1.8-1.3-3.3V4.8z"/>
		<path class="st0" d="M256,7c-0.7,0-1.3-0.2-1.8-0.7c-0.5-0.5-0.7-1-0.7-1.7c0-0.7,0.2-1.2,0.7-1.7s1.1-0.7,1.8-0.7
			c0.7,0,1.3,0.2,1.8,0.7c0.5,0.5,0.7,1,0.7,1.7c0,0.7-0.2,1.2-0.7,1.7C257.3,6.8,256.7,7,256,7z M253.8,25.4V9.1h4.5v16.3H253.8z"
			/>
		<path class="st0" d="M266.2,25.4l-6-16.3h4.7l2.7,8.1c0.3,1,0.6,2,0.9,3c0.3,1,0.5,2,0.8,3h-1c0.3-1,0.5-2,0.8-3
			c0.3-1,0.6-2,0.9-3l2.6-8.1h4.7l-6,16.3H266.2z"/>
		<path class="st0" d="M286.1,25.7c-1.6,0-3.1-0.4-4.3-1.1c-1.2-0.7-2.2-1.7-2.9-3c-0.7-1.3-1-2.7-1-4.4c0-1.7,0.3-3.2,1-4.5
			s1.6-2.3,2.9-3c1.2-0.7,2.7-1.1,4.3-1.1c1.6,0,3.1,0.4,4.3,1.1c1.2,0.7,2.2,1.7,2.9,3c0.7,1.3,1,2.8,1,4.5c0,1.7-0.3,3.2-1,4.4
			c-0.7,1.3-1.6,2.3-2.9,3C289.2,25.4,287.7,25.7,286.1,25.7z M286.1,22.1c0.8,0,1.4-0.2,1.9-0.6c0.5-0.4,1-1,1.3-1.7
			c0.3-0.7,0.4-1.6,0.4-2.6c0-1-0.2-1.9-0.4-2.6c-0.3-0.7-0.7-1.3-1.3-1.7c-0.5-0.4-1.2-0.6-1.9-0.6c-0.7,0-1.4,0.2-1.9,0.6
			c-0.5,0.4-1,1-1.3,1.7c-0.3,0.7-0.4,1.6-0.4,2.6c0,1,0.1,1.8,0.4,2.6s0.7,1.3,1.3,1.7C284.7,21.9,285.4,22.1,286.1,22.1z"/>
	</g>
	<g>
		<path class="st1" d="M6.7,8.7h16.2c1.1,0,2,0.9,2,2v11.1c0,1.1-0.9,2-2,2H6.7c-1.1,0-2-0.9-2-2V10.7C4.7,9.6,5.6,8.7,6.7,8.7z"/>
		<polyline class="st1" points="19.8,3.6 14.8,8.7 9.7,3.6 		"/>
	</g>
</g>
</svg>
